<svg width="20" height="19" viewBox="0 0 20 19" fill="none" xmlns="http://www.w3.org/2000/svg">
<path id="Star 1" d="M9.04894 1.42705C9.3483 0.505741 10.6517 0.50574 10.9511 1.42705L12.4697 6.10081C12.6035 6.51284 12.9875 6.7918 13.4207 6.7918H18.335C19.3037 6.7918 19.7065 8.03141 18.9228 8.60081L14.947 11.4894C14.5966 11.744 14.4499 12.1954 14.5838 12.6074L16.1024 17.2812C16.4017 18.2025 15.3472 18.9686 14.5635 18.3992L10.5878 15.5106C10.2373 15.256 9.7627 15.256 9.41221 15.5106L5.43648 18.3992C4.65276 18.9686 3.59828 18.2025 3.89763 17.2812L5.41623 12.6074C5.55011 12.1954 5.40345 11.744 5.05296 11.4894L1.07722 8.60081C0.293507 8.03141 0.696283 6.7918 1.66501 6.7918H6.57929C7.01252 6.7918 7.39647 6.51284 7.53035 6.10081L9.04894 1.42705Z" fill="#EA4C36"/>
</svg>
