<svg width="20" height="19" viewBox="0 0 20 19" fill="none" xmlns="http://www.w3.org/2000/svg">
<path id="Star 4" d="M9.52447 1.58156C9.67415 1.1209 10.3259 1.12091 10.4755 1.58156L11.9941 6.25532C12.1949 6.87336 12.7709 7.2918 13.4207 7.2918H18.335C18.8194 7.2918 19.0207 7.9116 18.6289 8.1963L14.6531 11.0848C14.1274 11.4668 13.9074 12.1439 14.1082 12.7619L15.6268 17.4357C15.7765 17.8963 15.2493 18.2794 14.8574 17.9947L10.8817 15.1061C10.3559 14.7242 9.64405 14.7242 9.11832 15.1061L5.14258 17.9947C4.75073 18.2794 4.22349 17.8963 4.37316 17.4357L5.89176 12.7619C6.09257 12.1439 5.87258 11.4668 5.34685 11.0848L1.37111 8.1963C0.979257 7.9116 1.18064 7.2918 1.66501 7.2918H6.57929C7.22913 7.2918 7.80506 6.87336 8.00587 6.25532L9.52447 1.58156Z" stroke="#EA4C36"/>
</svg>
